<?xml version="1.0" encoding="UTF-8"?>
<svg id="Layer_2" data-name="Layer 2" xmlns="http://www.w3.org/2000/svg" viewBox="0 0 10.23 10.23">
  <defs>
    <style>
      .cls-1 {
        fill: #fff;
      }
    </style>
  </defs>
  <g id="Background">
    <path class="cls-1" d="m5.11,10.23c-.71,0-1.37-.13-1.99-.4s-1.16-.63-1.62-1.09-.82-1-1.09-1.62-.4-1.29-.4-1.99.13-1.37.4-1.99.63-1.16,1.09-1.62,1-.82,1.62-1.09,1.29-.4,1.99-.4,1.37.13,1.99.4,1.16.63,1.62,1.09.82,1,1.09,1.62.4,1.29.4,1.99-.13,1.37-.4,1.99-.63,1.16-1.09,1.62-1,.82-1.62,1.09-1.29.4-1.99.4Zm-.55-.78v-1.05c-.3,0-.55-.11-.75-.33-.2-.22-.31-.48-.31-.78v-.56L.88,4.1c-.04.17-.07.34-.09.51s-.03.33-.03.51c0,1.11.36,2.08,1.08,2.9.72.83,1.63,1.3,2.72,1.43Zm3.76-1.38c.19-.2.35-.42.49-.65s.26-.47.36-.72.17-.51.22-.77.07-.53.07-.81c0-.9-.25-1.72-.74-2.46s-1.16-1.28-1.98-1.62v.23c0,.3-.1.56-.31.78s-.46.33-.75.33h-1.11v1.11c0,.14-.06.26-.17.36s-.25.14-.39.14h-1.06v1.13h3.3c.14,0,.26.06.36.17s.14.24.14.38v1.62h.55c.25,0,.46.07.65.22s.32.33.38.56Z"/>
  </g>
</svg>